<svg xmlns="http://www.w3.org/2000/svg" viewBox="0 0 800 1000" width="800" height="1000">
<rect width="800" height="1000" fill="#D8CDB2"/>

    <g transform="translate(400,620) scale(2.4)" fill="#2A2A28">
        <ellipse cx="-2" cy="-90" rx="15" ry="17"/>
        <path d="M -4,-74 C 8,-70 14,-52 10,-34 C 6,-16 -6,-2 -20,8 L -30,-2
                 C -18,-10 -10,-22 -8,-36 C -20,-30 -34,-22 -44,-10 L -54,-20
                 C -40,-36 -20,-48 2,-54 C -6,-62 -8,-68 -4,-74 Z"/>
        <path d="M 8,-56 L 66,-92 L 70,-82 L 16,-40 Z"/>
        <path d="M -8,-36 C -6,-18 -14,-2 -28,10 L -40,2 C -28,-8 -22,-22 -22,-34 Z"/>
        <path d="M -20,8 C -22,26 -30,42 -44,52 L -56,44 C -44,34 -38,20 -36,4 Z"/>
    </g>
</svg>