<svg xmlns="http://www.w3.org/2000/svg" viewBox="0 0 1200 700" width="1200" height="700">
<rect width="1200" height="700" fill="#7A2E0A"/>
<line x1="86.5" y1="166.6" x2="712.9" y2="159.0" stroke="#F7F1E6" stroke-width="4.2" stroke-linecap="round" opacity="0.12"/>
<line x1="-232.1" y1="45.9" x2="730.9" y2="61.8" stroke="#F7F1E6" stroke-width="2.7" stroke-linecap="round" opacity="0.12"/>
<line x1="42.2" y1="697.0" x2="1004.4" y2="688.6" stroke="#F7F1E6" stroke-width="3.6" stroke-linecap="round" opacity="0.12"/>
<line x1="140.9" y1="105.4" x2="1125.9" y2="91.0" stroke="#F7F1E6" stroke-width="3.9" stroke-linecap="round" opacity="0.12"/>
<line x1="-201.6" y1="470.0" x2="704.3" y2="481.9" stroke="#F7F1E6" stroke-width="4.2" stroke-linecap="round" opacity="0.12"/>
<line x1="279.3" y1="21.7" x2="979.7" y2="-1.0" stroke="#F7F1E6" stroke-width="4.7" stroke-linecap="round" opacity="0.12"/>
<line x1="312.7" y1="499.9" x2="957.0" y2="503.2" stroke="#F7F1E6" stroke-width="5.1" stroke-linecap="round" opacity="0.12"/>
<line x1="287.3" y1="654.9" x2="717.5" y2="671.9" stroke="#F7F1E6" stroke-width="2.1" stroke-linecap="round" opacity="0.12"/>
<line x1="21.7" y1="675.8" x2="832.9" y2="675.4" stroke="#F7F1E6" stroke-width="2.9" stroke-linecap="round" opacity="0.12"/>
<line x1="-29.5" y1="270.1" x2="751.8" y2="245.9" stroke="#F7F1E6" stroke-width="4.1" stroke-linecap="round" opacity="0.12"/>
<line x1="317.4" y1="477.4" x2="1294.0" y2="467.1" stroke="#F7F1E6" stroke-width="6.0" stroke-linecap="round" opacity="0.12"/>
<line x1="276.4" y1="114.2" x2="1330.9" y2="110.0" stroke="#F7F1E6" stroke-width="5.6" stroke-linecap="round" opacity="0.12"/>
<line x1="-113.3" y1="499.7" x2="845.4" y2="512.6" stroke="#F7F1E6" stroke-width="4.1" stroke-linecap="round" opacity="0.12"/>
<line x1="272.4" y1="44.4" x2="1345.0" y2="26.4" stroke="#F7F1E6" stroke-width="1.9" stroke-linecap="round" opacity="0.12"/>
    <g transform="translate(560,560) scale(2.1)" fill="#F7F1E6">
        <ellipse cx="0" cy="-92" rx="16" ry="18"/>
        <path d="M -6,-76 C 10,-70 18,-40 8,-8 C 4,10 -10,20 -26,26 L -34,14
                 C -20,6 -10,-6 -8,-24 C -22,-18 -40,-6 -50,10 L -62,2
                 C -46,-20 -22,-40 -2,-52 C -10,-62 -12,-70 -6,-76 Z"/>
        <path d="M 6,-40 C 24,-34 40,-18 46,4 L 34,10 C 28,-6 16,-20 2,-26 Z"/>
        <path d="M -2,-6 C 14,2 26,18 24,40 L 10,42 C 12,24 2,10 -10,4 Z"/>
        <path d="M -10,4 C -26,10 -40,26 -44,46 L -58,42 C -52,20 -34,2 -14,-6 Z"/>
    </g>
</svg>