<svg xmlns="http://www.w3.org/2000/svg" viewBox="0 0 1600 900" width="1600" height="900">
<rect width="1600" height="900" fill="#A63D0E"/>
<line x1="357.9" y1="120.9" x2="1571.2" y2="121.2" stroke="#F7F1E6" stroke-width="2.6" stroke-linecap="round" opacity="0.16"/>
<line x1="201.3" y1="404.5" x2="1438.4" y2="432.8" stroke="#F7F1E6" stroke-width="1.9" stroke-linecap="round" opacity="0.16"/>
<line x1="26.2" y1="752.2" x2="1238.0" y2="755.5" stroke="#F7F1E6" stroke-width="1.5" stroke-linecap="round" opacity="0.16"/>
<line x1="-137.0" y1="649.4" x2="1250.5" y2="677.6" stroke="#F7F1E6" stroke-width="5.6" stroke-linecap="round" opacity="0.16"/>
<line x1="113.1" y1="22.9" x2="1494.7" y2="39.9" stroke="#F7F1E6" stroke-width="3.2" stroke-linecap="round" opacity="0.16"/>
<line x1="-296.8" y1="379.9" x2="396.1" y2="380.2" stroke="#F7F1E6" stroke-width="3.5" stroke-linecap="round" opacity="0.16"/>
<line x1="-135.3" y1="209.8" x2="554.7" y2="222.4" stroke="#F7F1E6" stroke-width="3.6" stroke-linecap="round" opacity="0.16"/>
<line x1="350.1" y1="19.3" x2="1364.3" y2="38.2" stroke="#F7F1E6" stroke-width="4.4" stroke-linecap="round" opacity="0.16"/>
<line x1="368.0" y1="893.3" x2="964.0" y2="880.0" stroke="#F7F1E6" stroke-width="3.0" stroke-linecap="round" opacity="0.16"/>
<line x1="429.2" y1="640.1" x2="1314.4" y2="629.9" stroke="#F7F1E6" stroke-width="5.2" stroke-linecap="round" opacity="0.16"/>
<line x1="150.1" y1="273.0" x2="1477.2" y2="272.7" stroke="#F7F1E6" stroke-width="5.3" stroke-linecap="round" opacity="0.16"/>
<line x1="-292.4" y1="530.1" x2="420.7" y2="535.2" stroke="#F7F1E6" stroke-width="5.1" stroke-linecap="round" opacity="0.16"/>
<line x1="119.0" y1="155.7" x2="1274.0" y2="163.2" stroke="#F7F1E6" stroke-width="4.5" stroke-linecap="round" opacity="0.16"/>
<line x1="86.7" y1="395.1" x2="1314.0" y2="401.5" stroke="#F7F1E6" stroke-width="3.8" stroke-linecap="round" opacity="0.16"/>
<line x1="-296.3" y1="440.7" x2="225.4" y2="411.7" stroke="#F7F1E6" stroke-width="4.7" stroke-linecap="round" opacity="0.16"/>
<line x1="-5.1" y1="533.9" x2="638.4" y2="504.9" stroke="#F7F1E6" stroke-width="3.8" stroke-linecap="round" opacity="0.16"/>
<line x1="111.7" y1="693.5" x2="1417.6" y2="692.6" stroke="#F7F1E6" stroke-width="2.5" stroke-linecap="round" opacity="0.16"/>
<line x1="142.2" y1="857.2" x2="1063.0" y2="854.3" stroke="#F7F1E6" stroke-width="2.7" stroke-linecap="round" opacity="0.16"/>
<line x1="-315.4" y1="861.4" x2="916.9" y2="838.2" stroke="#F7F1E6" stroke-width="5.2" stroke-linecap="round" opacity="0.16"/>
<line x1="327.3" y1="666.5" x2="1305.2" y2="670.9" stroke="#F7F1E6" stroke-width="4.0" stroke-linecap="round" opacity="0.16"/>
<line x1="376.0" y1="50.5" x2="1403.2" y2="50.2" stroke="#F7F1E6" stroke-width="2.4" stroke-linecap="round" opacity="0.16"/>
<line x1="-34.6" y1="436.4" x2="777.7" y2="429.0" stroke="#F7F1E6" stroke-width="3.9" stroke-linecap="round" opacity="0.16"/>
<line x1="46.5" y1="551.2" x2="553.4" y2="570.6" stroke="#F7F1E6" stroke-width="2.5" stroke-linecap="round" opacity="0.16"/>
<line x1="368.8" y1="526.0" x2="1615.3" y2="507.0" stroke="#F7F1E6" stroke-width="5.1" stroke-linecap="round" opacity="0.16"/>
    <g transform="translate(1080,900) scale(4.2)" fill="#F7F1E6">
        <ellipse cx="4" cy="-104" rx="15" ry="17"/>
        <path d="M -4,-88 C 14,-84 22,-64 18,-44 C 30,-52 44,-64 52,-80 L 64,-70
                 C 54,-50 36,-32 16,-20 C 10,-4 2,10 -6,22 L -20,16
                 C -10,4 -4,-10 -4,-24 C -18,-16 -34,-6 -44,10 L -56,0
                 C -42,-20 -22,-36 0,-46 C -8,-60 -10,-76 -4,-88 Z"/>
        <path d="M -6,22 C -4,40 -8,58 -18,72 L -32,66 C -24,54 -20,40 -22,26 Z"/>
    </g><line x1="438.3" y1="860.4" x2="972.6" y2="840.3" stroke="#180D08" stroke-width="1.9" stroke-linecap="round" opacity="0.1"/>
<line x1="215.8" y1="662.4" x2="991.6" y2="656.0" stroke="#180D08" stroke-width="4.2" stroke-linecap="round" opacity="0.1"/>
<line x1="-193.3" y1="523.1" x2="700.1" y2="509.7" stroke="#180D08" stroke-width="3.3" stroke-linecap="round" opacity="0.1"/>
<line x1="439.5" y1="895.3" x2="1441.9" y2="909.2" stroke="#180D08" stroke-width="3.5" stroke-linecap="round" opacity="0.1"/>
<line x1="-298.0" y1="32.3" x2="628.3" y2="39.5" stroke="#180D08" stroke-width="2.9" stroke-linecap="round" opacity="0.1"/>
<line x1="100.6" y1="802.6" x2="1118.7" y2="831.2" stroke="#180D08" stroke-width="2.6" stroke-linecap="round" opacity="0.1"/>
<line x1="-210.6" y1="292.6" x2="759.2" y2="282.2" stroke="#180D08" stroke-width="6.0" stroke-linecap="round" opacity="0.1"/>
<line x1="394.9" y1="163.7" x2="1639.7" y2="139.3" stroke="#180D08" stroke-width="4.8" stroke-linecap="round" opacity="0.1"/>
<line x1="311.8" y1="686.6" x2="1131.4" y2="658.9" stroke="#180D08" stroke-width="5.9" stroke-linecap="round" opacity="0.1"/>
<line x1="283.2" y1="145.1" x2="1449.7" y2="143.2" stroke="#180D08" stroke-width="3.6" stroke-linecap="round" opacity="0.1"/>
</svg>