<svg xmlns="http://www.w3.org/2000/svg" viewBox="0 0 900 1100" width="900" height="1100">
<rect width="900" height="1100" fill="#7A2E0A"/>
<line x1="-174.8" y1="1061.8" x2="492.7" y2="1032.6" stroke="#F7F1E6" stroke-width="2.2" stroke-linecap="round" opacity="0.1"/>
<line x1="215.8" y1="18.6" x2="853.7" y2="-11.4" stroke="#F7F1E6" stroke-width="5.4" stroke-linecap="round" opacity="0.1"/>
<line x1="-27.9" y1="263.7" x2="624.6" y2="277.9" stroke="#F7F1E6" stroke-width="2.8" stroke-linecap="round" opacity="0.1"/>
<line x1="206.0" y1="251.5" x2="948.3" y2="268.1" stroke="#F7F1E6" stroke-width="5.1" stroke-linecap="round" opacity="0.1"/>
<line x1="50.1" y1="1017.3" x2="445.1" y2="1022.1" stroke="#F7F1E6" stroke-width="3.5" stroke-linecap="round" opacity="0.1"/>
<line x1="74.1" y1="86.9" x2="538.5" y2="61.0" stroke="#F7F1E6" stroke-width="4.1" stroke-linecap="round" opacity="0.1"/>
<line x1="2.3" y1="710.1" x2="738.6" y2="710.7" stroke="#F7F1E6" stroke-width="6.0" stroke-linecap="round" opacity="0.1"/>
<line x1="-171.6" y1="1039.5" x2="174.2" y2="1013.2" stroke="#F7F1E6" stroke-width="2.3" stroke-linecap="round" opacity="0.1"/>
    <g transform="translate(495.00000000000006,682.0) scale(2.0)" fill="#F7F1E6">
        <ellipse cx="0" cy="-92" rx="16" ry="18"/>
        <path d="M -6,-76 C 10,-70 18,-40 8,-8 C 4,10 -10,20 -26,26 L -34,14
                 C -20,6 -10,-6 -8,-24 C -22,-18 -40,-6 -50,10 L -62,2
                 C -46,-20 -22,-40 -2,-52 C -10,-62 -12,-70 -6,-76 Z"/>
        <path d="M 6,-40 C 24,-34 40,-18 46,4 L 34,10 C 28,-6 16,-20 2,-26 Z"/>
        <path d="M -2,-6 C 14,2 26,18 24,40 L 10,42 C 12,24 2,10 -10,4 Z"/>
        <path d="M -10,4 C -26,10 -40,26 -44,46 L -58,42 C -52,20 -34,2 -14,-6 Z"/>
    </g><text x="40" y="1050" font-family="Helvetica, Arial, sans-serif" font-size="34" letter-spacing="2" fill="#F7F1E6" opacity="0.85">SWIMMING</text>
</svg>