<svg xmlns="http://www.w3.org/2000/svg" viewBox="0 0 900 1100" width="900" height="1100">
<rect width="900" height="1100" fill="#7A2E0A"/>
<line x1="128.4" y1="284.9" x2="767.8" y2="303.8" stroke="#F7F1E6" stroke-width="5.3" stroke-linecap="round" opacity="0.1"/>
<line x1="-113.8" y1="253.6" x2="277.8" y2="275.8" stroke="#F7F1E6" stroke-width="4.8" stroke-linecap="round" opacity="0.1"/>
<line x1="-83.7" y1="584.4" x2="345.4" y2="564.2" stroke="#F7F1E6" stroke-width="3.4" stroke-linecap="round" opacity="0.1"/>
<line x1="-173.5" y1="669.2" x2="245.4" y2="647.0" stroke="#F7F1E6" stroke-width="2.2" stroke-linecap="round" opacity="0.1"/>
<line x1="182.7" y1="890.7" x2="899.0" y2="863.8" stroke="#F7F1E6" stroke-width="4.9" stroke-linecap="round" opacity="0.1"/>
<line x1="-64.5" y1="873.1" x2="664.5" y2="857.8" stroke="#F7F1E6" stroke-width="3.7" stroke-linecap="round" opacity="0.1"/>
<line x1="13.3" y1="620.6" x2="480.0" y2="631.7" stroke="#F7F1E6" stroke-width="3.4" stroke-linecap="round" opacity="0.1"/>
<line x1="188.8" y1="129.1" x2="889.9" y2="117.6" stroke="#F7F1E6" stroke-width="5.9" stroke-linecap="round" opacity="0.1"/>
    <g transform="translate(495.00000000000006,682.0) scale(2.0)" fill="#F7F1E6">
        <ellipse cx="4" cy="-104" rx="15" ry="17"/>
        <path d="M -4,-88 C 14,-84 22,-64 18,-44 C 30,-52 44,-64 52,-80 L 64,-70
                 C 54,-50 36,-32 16,-20 C 10,-4 2,10 -6,22 L -20,16
                 C -10,4 -4,-10 -4,-24 C -18,-16 -34,-6 -44,10 L -56,0
                 C -42,-20 -22,-36 0,-46 C -8,-60 -10,-76 -4,-88 Z"/>
        <path d="M -6,22 C -4,40 -8,58 -18,72 L -32,66 C -24,54 -20,40 -22,26 Z"/>
    </g><text x="40" y="1050" font-family="Helvetica, Arial, sans-serif" font-size="34" letter-spacing="2" fill="#F7F1E6" opacity="0.85">SOCCER</text>
</svg>